<?xml version="1.0" encoding="UTF-8" standalone="no"?>
<svg
   xmlns:dc="http://purl.org/dc/elements/1.1/"
   xmlns:cc="http://creativecommons.org/ns#"
   xmlns:rdf="http://www.w3.org/1999/02/22-rdf-syntax-ns#"
   xmlns:svg="http://www.w3.org/2000/svg"
   xmlns="http://www.w3.org/2000/svg"
   viewBox="0 0 423.35999 229.98666"
   height="229.98666"
   width="423.35999"
   xml:space="preserve"
   id="svg2"
   version="1.1"><metadata
     id="metadata8"><rdf:RDF><cc:Work
         rdf:about=""><dc:format>image/svg+xml</dc:format><dc:type
           rdf:resource="http://purl.org/dc/dcmitype/StillImage" /></cc:Work></rdf:RDF></metadata><defs
     id="defs6" /><g
     transform="matrix(1.3333333,0,0,-1.3333333,0,229.98667)"
     id="g10"><g
       transform="scale(0.1)"
       id="g12"><path
         id="path14"
         style="fill:#393536;fill-opacity:1;fill-rule:nonzero;stroke:none"
         d="M 864.148,690.711 H 682.41 L 431.418,1293.48 H 641.672 L 773.293,977.43 904.895,1293.48 H 1115.17 L 864.148,690.711" /><path
         id="path16"
         style="fill:#393536;fill-opacity:1;fill-rule:nonzero;stroke:none"
         d="m 936.199,690.711 251.011,602.769 h 248.28 L 1184.47,690.711 H 936.199" /><path
         id="path18"
         style="fill:#393536;fill-opacity:1;fill-rule:nonzero;stroke:none"
         d="m 2030.5,690.711 251,602.769 h 210.26 L 2240.75,690.711 H 2030.5" /><path
         id="path20"
         style="fill:#393536;fill-opacity:1;fill-rule:nonzero;stroke:none"
         d="m 2312.22,690.711 216.39,522.249 215.13,-522.249 z" /><path
         id="path22"
         style="fill:#393536;fill-opacity:1;fill-rule:nonzero;stroke:none"
         d="m 1720.29,845.457 c 46.19,0 83.68,13.652 112.47,40.938 28.79,27.285 43.18,62.519 43.18,105.703 0,43.192 -14.39,78.422 -43.18,105.712 -28.79,27.3 -66.28,40.94 -112.47,40.94 h -61.18 V 845.457 Z m 15.3,448.023 c 47.99,0 92.37,-7.33 133.15,-22.04 40.78,-14.69 75.72,-35.38 104.81,-62.06 29.1,-26.7 51.43,-58.79 67.04,-96.27 15.59,-37.48 23.37,-77.82 23.37,-121.012 0,-43.184 -7.78,-83.516 -23.37,-120.996 -15.61,-37.5 -37.94,-69.571 -67.04,-96.27 -29.09,-26.699 -64.03,-47.383 -104.81,-62.094 -40.78,-14.687 -85.16,-22.027 -133.15,-22.027 h -262.71 v 602.769 h 262.71" /><path
         id="path24"
         style="fill:#393536;fill-opacity:1;fill-rule:nonzero;stroke:none"
         d="m 2026.63,431.41 v 134.961 h 23.82 V 452.852 h 71.05 V 431.41 h -94.87" /><path
         id="path26"
         style="fill:#393536;fill-opacity:1;fill-rule:nonzero;stroke:none"
         d="m 2168.74,431.41 h -23.82 v 134.961 h 23.82 V 431.41" /><path
         id="path28"
         style="fill:#393536;fill-opacity:1;fill-rule:nonzero;stroke:none"
         d="m 2295.77,538.191 c -8.21,2.649 -16.41,4.739 -24.62,6.258 -8.2,1.512 -15.35,2.281 -21.43,2.281 -7.68,0 -13.8,-1.46 -18.36,-4.371 -4.57,-2.91 -6.85,-7.339 -6.85,-13.3 0,-2.911 0.76,-5.348 2.28,-7.34 1.53,-1.989 3.74,-3.68 6.65,-5.059 2.91,-1.39 6.48,-2.621 10.72,-3.672 4.23,-1.058 9.06,-2.117 14.49,-3.179 7.41,-1.45 14.02,-3.168 19.85,-5.149 5.82,-2 10.78,-4.48 14.88,-7.461 4.1,-2.961 7.21,-6.609 9.33,-10.898 2.11,-4.313 3.18,-9.563 3.18,-15.781 0,-7.149 -1.33,-13.329 -3.97,-18.559 -2.65,-5.231 -6.35,-9.602 -11.12,-13.102 -4.76,-3.507 -10.45,-6.129 -17.06,-7.847 -6.63,-1.723 -13.83,-2.571 -21.64,-2.571 -7.94,0 -16.87,0.848 -26.8,2.571 -9.92,1.718 -19.84,4.629 -29.77,8.738 l 5.56,22.23 c 9.93,-3.968 19.35,-6.82 28.29,-8.539 8.93,-1.711 16.83,-2.57 23.71,-2.57 8.6,0 15.55,1.348 20.84,4.059 5.29,2.711 7.94,7.121 7.94,13.199 0,3.973 -1.12,7.152 -3.37,9.531 -2.25,2.379 -5.26,4.328 -9.03,5.852 -3.78,1.527 -8.04,2.75 -12.8,3.679 -4.77,0.918 -9.67,1.911 -14.69,2.969 -7.41,1.602 -13.8,3.41 -19.16,5.461 -5.35,2.051 -9.75,4.559 -13.2,7.539 -3.44,2.981 -5.98,6.488 -7.64,10.52 -1.65,4.031 -2.48,8.84 -2.48,14.39 0,6.09 1.22,11.641 3.67,16.668 2.45,5.032 5.89,9.262 10.33,12.711 4.42,3.442 9.79,6.11 16.07,8.039 6.28,1.91 13.27,2.883 20.94,2.883 4.76,0 9.56,-0.281 14.39,-0.801 4.83,-0.531 9.49,-1.218 13.99,-2.082 4.5,-0.859 8.7,-1.828 12.61,-2.879 3.9,-1.058 7.37,-2.179 10.42,-3.371 l -6.15,-21.047" /><path
         id="path30"
         style="fill:#393536;fill-opacity:1;fill-rule:nonzero;stroke:none"
         d="m 2388.05,450.66 c 9.79,0 17.34,1.59 22.63,4.77 5.29,3.172 7.94,8.199 7.94,15.09 0,5.949 -2.42,10.441 -7.25,13.492 -4.83,3.039 -11.21,4.558 -19.15,4.558 h -34.93 v -37.109 c 5.56,-0.27 10.98,-0.473 16.27,-0.59 5.3,-0.141 10.13,-0.211 14.49,-0.211 z m -2.58,95.871 c -4.5,0 -9.16,-0.07 -13.99,-0.191 -4.83,-0.141 -9.56,-0.211 -14.19,-0.211 V 508.82 h 30.76 c 7.68,0 13.76,1.75 18.26,5.258 4.5,3.512 6.75,8.231 6.75,14.192 0,6.48 -2.28,11.14 -6.84,13.992 -4.57,2.847 -11.49,4.269 -20.75,4.269 z m 25.01,-46.25 c 9.79,-1.84 17.5,-5.621 23.12,-11.312 5.63,-5.688 8.44,-12.5 8.44,-20.438 0,-12.699 -4.54,-22.359 -13.6,-28.98 -9.06,-6.61 -21.6,-9.922 -37.61,-9.922 -4.23,0 -8.96,0.062 -14.19,0.191 -5.23,0.141 -10.49,0.282 -15.78,0.399 -5.29,0.14 -10.35,0.301 -15.18,0.5 -4.84,0.203 -8.9,0.429 -12.21,0.691 v 134.961 c 3.18,0.141 6.98,0.238 11.41,0.309 4.44,0.058 9.1,0.16 14,0.289 4.89,0.14 9.85,0.23 14.88,0.301 5.03,0.058 9.86,0.101 14.49,0.101 15.22,0 26.9,-3.051 35.03,-9.133 8.14,-6.078 12.21,-14.879 12.21,-26.398 0,-7.809 -2.18,-14.488 -6.55,-20.051 -4.36,-5.551 -10.52,-9.391 -18.46,-11.508" /><path
         id="path32"
         style="fill:#393536;fill-opacity:1;fill-rule:nonzero;stroke:none"
         d="m 2531.16,450.871 c 6.75,0 13,1.149 18.76,3.461 5.75,2.316 10.71,5.559 14.88,9.727 4.17,4.171 7.41,9.23 9.73,15.191 2.31,5.949 3.47,12.512 3.47,19.641 0,7.148 -1.16,13.711 -3.47,19.648 -2.32,5.961 -5.56,11.02 -9.73,15.191 -4.17,4.168 -9.13,7.411 -14.88,9.719 -5.76,2.321 -12.01,3.481 -18.76,3.481 -6.88,0 -13.2,-1.16 -18.95,-3.481 -5.76,-2.308 -10.72,-5.551 -14.89,-9.719 -4.17,-4.171 -7.41,-9.23 -9.73,-15.191 -2.31,-5.937 -3.47,-12.5 -3.47,-19.648 0,-7.129 1.16,-13.692 3.47,-19.641 2.32,-5.961 5.56,-11.02 9.73,-15.191 4.17,-4.168 9.13,-7.411 14.89,-9.727 5.75,-2.312 12.07,-3.461 18.95,-3.461 z m 0,118.481 c 10.45,0 20.08,-1.692 28.88,-5.063 8.8,-3.367 16.37,-8.129 22.72,-14.277 6.36,-6.153 11.32,-13.571 14.89,-22.242 3.57,-8.661 5.36,-18.29 5.36,-28.879 0,-10.582 -1.79,-20.211 -5.36,-28.871 -3.57,-8.668 -8.53,-16.079 -14.89,-22.231 -6.35,-6.148 -13.92,-10.918 -22.72,-14.301 -8.8,-3.367 -18.43,-5.047 -28.88,-5.047 -10.59,0 -20.28,1.68 -29.08,5.047 -8.8,3.383 -16.37,8.153 -22.72,14.301 -6.35,6.152 -11.32,13.563 -14.89,22.231 -3.57,8.66 -5.36,18.289 -5.36,28.871 0,10.589 1.79,20.218 5.36,28.879 3.57,8.671 8.54,16.089 14.89,22.242 6.35,6.148 13.92,10.91 22.72,14.277 8.8,3.371 18.49,5.063 29.08,5.063" /><path
         id="path34"
         style="fill:#393536;fill-opacity:1;fill-rule:nonzero;stroke:none"
         d="m 2656.79,480.441 h 48.83 l -24.41,55.77 z m -21.23,-49.031 h -27 l 61.53,135.77 h 22.23 l 61.33,-135.77 h -26.6 l -12.3,27.59 h -67.28 l -11.91,-27.59" /></g></g></svg>